<svg version="1.1" xmlns="http://www.w3.org/2000/svg" xmlns:xlink="http://www.w3.org/1999/xlink" width="1340.1986083984375" height="760"><defs/><g><g transform="translate(-10,-10) scale(1,1)"><rect fill="#C0C0C0" stroke="none" x="315.39971923828125" y="87" width="257.39971923828125" height="145" opacity="0.2"/></g><g transform="translate(-10,-10) scale(1,1)"><rect fill="#ffffff" stroke="none" x="308.39971923828125" y="80" width="257.39971923828125" height="145"/></g><g transform="translate(-10,-10) scale(1,1)"><path fill="none" stroke="#000000" d="M 308.39971923828125 80 L 565.7994384765625 80 L 565.7994384765625 225 L 308.39971923828125 225 L 308.39971923828125 80 Z Z" stroke-miterlimit="10"/></g><g transform="translate(-10,-10) scale(1,1)"><path fill="none" stroke="#000000" d="M 308.39971923828125 110 L 565.7994384765625 110" stroke-miterlimit="10"/></g><g transform="translate(-10,-10) scale(1,1)"><path fill="none" stroke="#000000" d="M 308.39971923828125 138 L 565.7994384765625 138" stroke-miterlimit="10"/></g><g transform="translate(-10,-10) scale(1,1)"><g><path fill="none" stroke="none"/><text fill="#000000" stroke="none" font-family="Source Code Pro" font-size="18px" font-style="normal" font-weight="bold" text-decoration="none" x="404.6996154785156" y="104.5">Locker</text></g></g><g transform="translate(-10,-10) scale(1,1)"><g><path fill="none" stroke="none"/><text fill="#000000" stroke="none" font-family="Source Code Pro" font-size="18px" font-style="normal" font-weight="normal" text-decoration="none" x="313.39971923828125" y="132.5">-mutex: pthread_mutex_t</text></g></g><g transform="translate(-10,-10) scale(1,1)"><g><path fill="none" stroke="none"/><text fill="#000000" stroke="none" font-family="Source Code Pro" font-size="18px" font-style="normal" font-weight="normal" text-decoration="none" x="313.39971923828125" y="160.5">«constructor»+Locker()</text></g></g><g transform="translate(-10,-10) scale(1,1)"><g><path fill="none" stroke="none"/><text fill="#000000" stroke="none" font-family="Source Code Pro" font-size="18px" font-style="normal" font-weight="normal" text-decoration="none" x="313.39971923828125" y="180.5">«destructor»+Locker()</text></g></g><g transform="translate(-10,-10) scale(1,1)"><g><path fill="none" stroke="none"/><text fill="#000000" stroke="none" font-family="Source Code Pro" font-size="18px" font-style="normal" font-weight="normal" text-decoration="none" x="313.39971923828125" y="200.5">+Lock(): bool</text></g></g><g transform="translate(-10,-10) scale(1,1)"><g><path fill="none" stroke="none"/><text fill="#000000" stroke="none" font-family="Source Code Pro" font-size="18px" font-style="normal" font-weight="normal" text-decoration="none" x="313.39971923828125" y="220.5">+Unlock(): bool</text></g></g><g transform="translate(-10,-10) scale(1,1)"><rect fill="#C0C0C0" stroke="none" x="27" y="107" width="257.39971923828125" height="105" opacity="0.2"/></g><g transform="translate(-10,-10) scale(1,1)"><rect fill="#ffffff" stroke="none" x="20" y="100" width="257.39971923828125" height="105"/></g><g transform="translate(-10,-10) scale(1,1)"><path fill="none" stroke="#000000" d="M 20 100 L 277.39971923828125 100 L 277.39971923828125 205 L 20 205 L 20 100 Z Z" stroke-miterlimit="10"/></g><g transform="translate(-10,-10) scale(1,1)"><path fill="none" stroke="#000000" d="M 20 130 L 277.39971923828125 130" stroke-miterlimit="10"/></g><g transform="translate(-10,-10) scale(1,1)"><path fill="none" stroke="#000000" d="M 20 178 L 277.39971923828125 178" stroke-miterlimit="10"/></g><g transform="translate(-10,-10) scale(1,1)"><g><path fill="none" stroke="none"/><text fill="#000000" stroke="none" font-family="Source Code Pro" font-size="18px" font-style="normal" font-weight="bold" text-decoration="none" x="110.89990234375" y="124.5">Process</text></g></g><g transform="translate(-10,-10) scale(1,1)"><g><path fill="none" stroke="none"/><text fill="#000000" stroke="none" font-family="Source Code Pro" font-size="18px" font-style="normal" font-weight="normal" text-decoration="none" x="25" y="152.5">+pid: pid_t</text></g></g><g transform="translate(-10,-10) scale(1,1)"><g><path fill="none" stroke="none"/><text fill="#000000" stroke="none" font-family="Source Code Pro" font-size="18px" font-style="normal" font-weight="normal" text-decoration="none" x="25" y="172.5">+sktpipefd[]: int</text></g></g><g transform="translate(-10,-10) scale(1,1)"><g><path fill="none" stroke="none"/><text fill="#000000" stroke="none" font-family="Source Code Pro" font-size="18px" font-style="normal" font-weight="normal" text-decoration="none" x="25" y="200.5">«constructor»+Process()</text></g></g><g transform="translate(-10,-10) scale(1,1)"><rect fill="#C0C0C0" stroke="none" x="175" y="382" width="666.1992797851562" height="385" opacity="0.2"/></g><g transform="translate(-10,-10) scale(1,1)"><rect fill="#C0C0C0" stroke="none" x="830.3992919921875" y="359" width="19.79998779296875" height="27" opacity="0.2"/></g><g transform="translate(-10,-10) scale(1,1)"><rect fill="#ffffff" stroke="none" x="168" y="375" width="666.1992797851562" height="385"/></g><g transform="translate(-10,-10) scale(1,1)"><path fill="none" stroke="#000000" d="M 168 375 L 834.1992797851562 375 L 834.1992797851562 760 L 168 760 L 168 375 Z Z" stroke-miterlimit="10"/></g><g transform="translate(-10,-10) scale(1,1)"><path fill="none" stroke="#000000" d="M 168 405 L 834.1992797851562 405" stroke-miterlimit="10"/></g><g transform="translate(-10,-10) scale(1,1)"><path fill="none" stroke="#000000" d="M 168 613 L 834.1992797851562 613" stroke-miterlimit="10"/></g><g transform="translate(-10,-10) scale(1,1)"><g><path fill="none" stroke="none"/><text fill="#000000" stroke="none" font-family="Source Code Pro" font-size="18px" font-style="normal" font-weight="bold" text-decoration="none" x="441.69970703125" y="399.5">Processpool</text></g></g><g transform="translate(-10,-10) scale(1,1)"><g><path fill="none" stroke="none"/><text fill="#000000" stroke="none" font-family="Source Code Pro" font-size="18px" font-style="normal" font-weight="normal" text-decoration="none" x="173" y="427.5">-kMaxProcessNum: const int</text><path fill="none" stroke="#000000" d="M 173 427.5 L 453.7996826171875 427.5" stroke-miterlimit="10"/></g></g><g transform="translate(-10,-10) scale(1,1)"><g><path fill="none" stroke="none"/><text fill="#000000" stroke="none" font-family="Source Code Pro" font-size="18px" font-style="normal" font-weight="normal" text-decoration="none" x="173" y="447.5">-kUserPerProcess: const int</text><path fill="none" stroke="#000000" d="M 173 447.5 L 464.59967041015625 447.5" stroke-miterlimit="10"/></g></g><g transform="translate(-10,-10) scale(1,1)"><g><path fill="none" stroke="none"/><text fill="#000000" stroke="none" font-family="Source Code Pro" font-size="18px" font-style="normal" font-weight="normal" text-decoration="none" x="173" y="467.5">-kMaxEventNum: const int</text><path fill="none" stroke="#000000" d="M 173 467.5 L 432.19970703125 467.5" stroke-miterlimit="10"/></g></g><g transform="translate(-10,-10) scale(1,1)"><g><path fill="none" stroke="none"/><text fill="#000000" stroke="none" font-family="Source Code Pro" font-size="18px" font-style="normal" font-weight="normal" text-decoration="none" x="173" y="487.5">-process_number: int</text></g></g><g transform="translate(-10,-10) scale(1,1)"><g><path fill="none" stroke="none"/><text fill="#000000" stroke="none" font-family="Source Code Pro" font-size="18px" font-style="normal" font-weight="normal" text-decoration="none" x="173" y="507.5">-idx: int</text></g></g><g transform="translate(-10,-10) scale(1,1)"><g><path fill="none" stroke="none"/><text fill="#000000" stroke="none" font-family="Source Code Pro" font-size="18px" font-style="normal" font-weight="normal" text-decoration="none" x="173" y="527.5">-epollfd: int</text></g></g><g transform="translate(-10,-10) scale(1,1)"><g><path fill="none" stroke="none"/><text fill="#000000" stroke="none" font-family="Source Code Pro" font-size="18px" font-style="normal" font-weight="normal" text-decoration="none" x="173" y="547.5">-listenfd: int</text></g></g><g transform="translate(-10,-10) scale(1,1)"><g><path fill="none" stroke="none"/><text fill="#000000" stroke="none" font-family="Source Code Pro" font-size="18px" font-style="normal" font-weight="normal" text-decoration="none" x="173" y="567.5">-stop: volatile bool</text></g></g><g transform="translate(-10,-10) scale(1,1)"><g><path fill="none" stroke="none"/><text fill="#000000" stroke="none" font-family="Source Code Pro" font-size="18px" font-style="normal" font-weight="normal" text-decoration="none" x="173" y="587.5">-sub_process: vector&lt;Process&gt;</text></g></g><g transform="translate(-10,-10) scale(1,1)"><g><path fill="none" stroke="none"/><text fill="#000000" stroke="none" font-family="Source Code Pro" font-size="18px" font-style="normal" font-weight="normal" text-decoration="none" x="173" y="607.5">-instance: atomic&lt;Processpool*&gt;</text><path fill="none" stroke="#000000" d="M 173 607.5 L 507.79962158203125 607.5" stroke-miterlimit="10"/></g></g><g transform="translate(-10,-10) scale(1,1)"><g><path fill="none" stroke="none"/><text fill="#000000" stroke="none" font-family="Source Code Pro" font-size="18px" font-style="normal" font-weight="normal" text-decoration="none" x="173" y="635.5">«constructor»-Processpool(int listenfd, int process_number)</text></g></g><g transform="translate(-10,-10) scale(1,1)"><g><path fill="none" stroke="none"/><text fill="#000000" stroke="none" font-family="Source Code Pro" font-size="18px" font-style="normal" font-weight="normal" text-decoration="none" x="173" y="655.5">«destructor»+Processpool()</text></g></g><g transform="translate(-10,-10) scale(1,1)"><g><path fill="none" stroke="none"/><text fill="#000000" stroke="none" font-family="Source Code Pro" font-size="18px" font-style="normal" font-weight="normal" text-decoration="none" x="173" y="675.5">+Create(int listenfd, int process_number): Processpool*</text><path fill="none" stroke="#000000" d="M 173 675.5 L 766.9993286132812 675.5" stroke-miterlimit="10"/></g></g><g transform="translate(-10,-10) scale(1,1)"><g><path fill="none" stroke="none"/><text fill="#000000" stroke="none" font-family="Source Code Pro" font-size="18px" font-style="normal" font-weight="normal" text-decoration="none" x="173" y="695.5">+Run(): void</text></g></g><g transform="translate(-10,-10) scale(1,1)"><g><path fill="none" stroke="none"/><text fill="#000000" stroke="none" font-family="Source Code Pro" font-size="18px" font-style="normal" font-weight="normal" text-decoration="none" x="173" y="715.5">-Setup(): void</text></g></g><g transform="translate(-10,-10) scale(1,1)"><g><path fill="none" stroke="none"/><text fill="#000000" stroke="none" font-family="Source Code Pro" font-size="18px" font-style="normal" font-weight="normal" text-decoration="none" x="173" y="735.5">-RunParent(): void</text></g></g><g transform="translate(-10,-10) scale(1,1)"><g><path fill="none" stroke="none"/><text fill="#000000" stroke="none" font-family="Source Code Pro" font-size="18px" font-style="normal" font-weight="normal" text-decoration="none" x="173" y="755.5">-RunChild(): void</text></g></g><g transform="translate(-10,-10) scale(1,1)"><rect fill="#ffffff" stroke="none" x="823.3992919921875" y="352" width="19.79998779296875" height="27"/></g><g transform="translate(-10,-10) scale(1,1)"><path fill="none" stroke="#000000" d="M 823.3992919921875 352 L 843.1992797851562 352 L 843.1992797851562 379 L 823.3992919921875 379 L 823.3992919921875 352 Z Z" stroke-miterlimit="10" stroke-dasharray="3"/></g><g transform="translate(-10,-10) scale(1,1)"><g><path fill="none" stroke="none"/><text fill="#000000" stroke="none" font-family="Source Code Pro" font-size="18px" font-style="normal" font-weight="normal" text-decoration="none" x="828.3992919921875" y="374.5">T</text></g></g><g transform="translate(-10,-10) scale(1,1)"><path fill="none" stroke="#000000" d="M 219 351 Q 149 301 148 206" stroke-miterlimit="10"/></g><g transform="translate(-10,-10) scale(1,1)"><path fill="#000000" stroke="none" d="M 152.31625415980247 216.1178036167929 L 148 206 L 143.89768503757293 216.20642013386902 L 148.23156611857593 227.9987812647139"/></g><g transform="translate(-10,-10) scale(1,1)"><path fill="none" stroke="#000000" d="M 152.31625415980247 216.1178036167929 L 148 206 L 143.89768503757293 216.20642013386902 L 148.23156611857593 227.9987812647139 L 152.31625415980247 216.1178036167929" stroke-miterlimit="10"/></g><g transform="translate(-10,-10) scale(1,1)"><path fill="none" stroke="#000000" d="M 451 351 Q 438 301 437 226" stroke-miterlimit="10"/></g><g transform="translate(-10,-10) scale(1,1)"><path fill="none" stroke="#000000" d="M 441.3446339149321 236.10564971415602 L 437 226 L 432.9263466618459 236.21789354419718" stroke-miterlimit="10"/></g><g transform="translate(-10,-10) scale(1,1)"><rect fill="#C0C0C0" stroke="none" x="603.7994384765625" y="27" width="743.399169921875" height="265" opacity="0.2"/></g><g transform="translate(-10,-10) scale(1,1)"><rect fill="#ffffff" stroke="none" x="596.7994384765625" y="20" width="743.399169921875" height="265"/></g><g transform="translate(-10,-10) scale(1,1)"><path fill="none" stroke="#000000" d="M 596.7994384765625 20 L 1340.1986083984375 20 L 1340.1986083984375 285 L 596.7994384765625 285 L 596.7994384765625 20 Z Z" stroke-miterlimit="10"/></g><g transform="translate(-10,-10) scale(1,1)"><path fill="none" stroke="#000000" d="M 596.7994384765625 50 L 1340.1986083984375 50" stroke-miterlimit="10"/></g><g transform="translate(-10,-10) scale(1,1)"><path fill="none" stroke="#000000" d="M 596.7994384765625 178 L 1340.1986083984375 178" stroke-miterlimit="10"/></g><g transform="translate(-10,-10) scale(1,1)"><g><path fill="none" stroke="none"/><text fill="#000000" stroke="none" font-family="Source Code Pro" font-size="18px" font-style="normal" font-weight="bold" text-decoration="none" x="952.2990417480469" y="44.5">Cgi</text></g></g><g transform="translate(-10,-10) scale(1,1)"><g><path fill="none" stroke="none"/><text fill="#000000" stroke="none" font-family="Source Code Pro" font-size="18px" font-style="normal" font-weight="normal" text-decoration="none" x="601.7994384765625" y="72.5">-kBufferSize: const int</text><path fill="none" stroke="#000000" d="M 601.7994384765625 72.5 L 850.1991577148438 72.5" stroke-miterlimit="10"/></g></g><g transform="translate(-10,-10) scale(1,1)"><g><path fill="none" stroke="none"/><text fill="#000000" stroke="none" font-family="Source Code Pro" font-size="18px" font-style="normal" font-weight="normal" text-decoration="none" x="601.7994384765625" y="92.5">-epollfd: int</text><path fill="none" stroke="#000000" d="M 601.7994384765625 92.5 L 742.1992797851562 92.5" stroke-miterlimit="10"/></g></g><g transform="translate(-10,-10) scale(1,1)"><g><path fill="none" stroke="none"/><text fill="#000000" stroke="none" font-family="Source Code Pro" font-size="18px" font-style="normal" font-weight="normal" text-decoration="none" x="601.7994384765625" y="112.5">-sockfd: int</text></g></g><g transform="translate(-10,-10) scale(1,1)"><g><path fill="none" stroke="none"/><text fill="#000000" stroke="none" font-family="Source Code Pro" font-size="18px" font-style="normal" font-weight="normal" text-decoration="none" x="601.7994384765625" y="132.5">-addr: sockaddr_in</text></g></g><g transform="translate(-10,-10) scale(1,1)"><g><path fill="none" stroke="none"/><text fill="#000000" stroke="none" font-family="Source Code Pro" font-size="18px" font-style="normal" font-weight="normal" text-decoration="none" x="601.7994384765625" y="152.5">-buf[]: char</text></g></g><g transform="translate(-10,-10) scale(1,1)"><g><path fill="none" stroke="none"/><text fill="#000000" stroke="none" font-family="Source Code Pro" font-size="18px" font-style="normal" font-weight="normal" text-decoration="none" x="601.7994384765625" y="172.5">-read_idx: int</text></g></g><g transform="translate(-10,-10) scale(1,1)"><g><path fill="none" stroke="none"/><text fill="#000000" stroke="none" font-family="Source Code Pro" font-size="18px" font-style="normal" font-weight="normal" text-decoration="none" x="601.7994384765625" y="200.5">«constructor»+Cgi()</text></g></g><g transform="translate(-10,-10) scale(1,1)"><g><path fill="none" stroke="none"/><text fill="#000000" stroke="none" font-family="Source Code Pro" font-size="18px" font-style="normal" font-weight="normal" text-decoration="none" x="601.7994384765625" y="220.5">«destructor»+Cgi()</text></g></g><g transform="translate(-10,-10) scale(1,1)"><g><path fill="none" stroke="none"/><text fill="#000000" stroke="none" font-family="Source Code Pro" font-size="18px" font-style="normal" font-weight="normal" text-decoration="none" x="601.7994384765625" y="240.5">-ResetBuf(): void</text></g></g><g transform="translate(-10,-10) scale(1,1)"><g><path fill="none" stroke="none"/><text fill="#000000" stroke="none" font-family="Source Code Pro" font-size="18px" font-style="normal" font-weight="normal" text-decoration="none" x="601.7994384765625" y="260.5">+Init(int epollfd, int sockfd, const sockaddr_in&amp; client_addr): void</text></g></g><g transform="translate(-10,-10) scale(1,1)"><g><path fill="none" stroke="none"/><text fill="#000000" stroke="none" font-family="Source Code Pro" font-size="18px" font-style="normal" font-weight="normal" text-decoration="none" x="601.7994384765625" y="280.5">+Process(): void</text></g></g><g transform="translate(-10,-10) scale(1,1)"><path fill="none" stroke="#000000" d="M 845 398 Q 928 360 942 286" stroke-miterlimit="10"/></g><g transform="translate(-10,-10) scale(1,1)"><path fill="none" stroke="#000000" d="M 944.2469903141039 296.76805620937796 L 942 286 L 935.9746965225143 295.2030276542124" stroke-miterlimit="10"/></g></g></svg>